{"glyphs":{"0":{"ha":685,"x_min":0,"x_max":629,"o":"m 604 1006 q 611 988 604 994 q 629 981 618 981 l 629 151 q 611 144 618 151 q 604 126 604 138 l 604 124 q 540 90 567 117 q 506 25 513 63 l 503 25 q 485 18 492 25 q 478 0 478 11 l 151 0 q 144 18 151 11 q 126 25 136 25 l 124 25 q 90 90 117 63 q 25 124 63 117 l 25 126 q 18 144 25 138 q 0 151 11 151 l 0 981 q 18 988 11 981 q 25 1006 25 994 l 25 1008 q 90 1042 63 1015 q 124 1107 117 1069 l 126 1107 q 144 1114 136 1107 q 151 1132 151 1121 l 478 1132 q 485 1114 478 1121 q 503 1107 492 1107 l 506 1107 q 540 1042 513 1069 q 604 1008 567 1015 l 604 1006 m 189 956 l 189 754 l 440 590 l 440 956 l 390 1006 l 239 1006 l 189 956 m 440 176 l 440 378 l 189 542 l 189 176 l 239 126 l 390 126 l 440 176 z "},"1":{"ha":429,"x_min":0,"x_max":374,"o":"m 296 335 l 296 126 l 317 25 q 302 16 308 22 q 296 0 296 10 l 108 0 q 102 16 108 10 q 88 25 96 22 l 108 126 l 108 369 q 82 490 104 444 q 40 556 60 535 q 33 569 33 563 q 40 576 32 576 q 69 575 51 576 q 108 569 88 574 l 108 899 l 0 899 l 0 1024 q 76 1056 44 1024 q 108 1132 108 1088 l 296 1132 q 302 1116 296 1122 q 317 1107 308 1110 l 296 1006 l 296 569 q 335 575 318 574 q 364 576 353 576 q 372 569 374 576 q 364 556 371 563 q 342 526 354 544 q 320 483 331 508 q 303 423 310 457 q 296 346 296 389 l 296 335 z "},"2":{"ha":735,"x_min":0,"x_max":679,"o":"m 679 25 q 660 0 660 19 l 658 0 l 31 0 q 10 25 31 21 l 31 126 l 31 246 q 49 253 42 246 q 56 271 56 260 q 51 283 56 279 l 78 324 l 450 907 l 450 981 l 425 1006 l 274 1006 l 213 1006 l 213 885 l 210 885 q 199 875 200 882 q 196 862 197 868 q 193 849 194 856 q 174 780 186 813 q 145 726 161 747 q 110 700 129 706 q 72 713 92 694 q 70 714 71 714 q 68 715 69 714 q 57 733 61 722 q 68 779 49 760 q 95 792 79 790 q 125 786 111 794 q 132 781 129 782 q 142 829 144 801 q 121 882 139 857 q 106 899 115 892 q 65 937 90 915 q 24 969 39 958 l 21 1006 l 0 1107 q 15 1116 8 1110 q 21 1132 21 1122 l 322 1132 l 638 1132 q 644 1116 638 1122 q 658 1107 650 1110 l 658 876 l 256 240 l 219 183 l 219 176 l 269 126 l 421 126 l 457 161 l 467 182 l 467 417 l 471 417 q 486 428 482 419 q 509 528 493 479 q 547 610 525 576 q 594 653 568 643 q 649 639 621 664 l 653 635 q 668 611 664 624 q 669 580 672 596 q 653 551 665 564 q 617 535 638 536 q 581 544 597 533 q 572 551 578 546 q 560 476 551 519 q 604 397 569 433 q 626 368 617 385 q 642 336 636 351 q 653 310 649 321 q 660 297 657 299 l 660 206 l 660 126 l 679 25 z "},"3":{"ha":685,"x_min":-19,"x_max":629,"o":"m 629 679 l 519 571 l 590 571 q 601 542 590 554 q 629 531 613 531 l 629 151 q 611 144 618 151 q 604 126 604 138 l 604 124 q 541 90 568 117 q 506 25 514 63 l 504 25 q 485 18 493 25 q 478 0 478 11 l 151 0 q 144 18 151 11 q 126 25 138 25 l 124 25 l 119 42 q 118 44 118 43 q 117 49 118 46 q 114 56 114 51 q 58 111 94 92 q 55 113 56 113 q 51 115 54 114 q 38 119 44 118 q 25 124 32 121 l 25 126 q 18 144 25 138 q 0 151 11 151 l 0 157 q 7 171 3 160 q 17 197 11 182 q 33 229 24 213 q 56 258 43 246 q 99 337 90 294 q 88 411 108 379 q 83 408 85 408 q 79 404 82 407 q 42 395 63 393 q 7 413 22 397 q -8 472 -19 438 q 7 494 -4 486 q 11 499 8 499 q 65 513 39 524 q 113 469 92 503 q 151 388 135 436 q 174 289 167 339 q 189 278 179 278 q 193 276 190 276 l 193 172 l 239 126 l 390 126 l 440 176 l 440 364 q 432 433 439 403 q 415 488 425 464 q 394 528 406 511 q 374 556 383 544 q 365 571 365 564 l 210 571 l 210 696 l 440 696 l 440 956 l 393 1004 l 229 1004 l 229 882 l 225 882 q 214 874 218 879 q 196 796 208 833 q 167 733 183 758 q 130 699 150 707 q 88 710 110 690 q 83 713 85 713 q 74 732 75 724 q 83 778 65 757 q 112 790 96 789 q 140 783 128 792 q 147 778 143 782 q 156 835 163 801 q 122 897 150 869 q 98 919 113 907 q 69 944 83 932 q 43 964 54 956 q 31 975 32 972 q 20 997 31 990 q 0 1004 10 1004 l 0 1129 q 11 1132 6 1129 l 439 1132 l 478 1132 q 485 1114 478 1121 q 504 1107 493 1107 l 506 1107 q 541 1042 514 1069 q 604 1008 568 1015 l 604 1006 q 611 988 604 994 q 629 981 618 981 l 629 679 m 439 571 l 440 571 l 440 569 q 439 571 440 571 z "},"4":{"ha":744,"x_min":0,"x_max":689,"o":"m 613 335 l 613 126 l 632 25 q 613 0 613 19 l 424 0 q 403 25 424 21 l 424 126 l 424 369 q 419 413 422 393 q 411 450 415 433 l 181 450 l 178 451 l 178 450 l 49 450 q 38 490 53 472 q 0 508 22 508 l 90 1006 l 69 1107 q 84 1116 78 1110 q 90 1132 90 1122 l 279 1132 q 299 1107 279 1111 l 279 1006 l 201 576 l 353 576 l 356 576 l 375 576 l 424 576 l 424 1006 l 403 1107 q 424 1132 424 1111 l 613 1132 q 632 1107 613 1111 l 613 1006 l 613 569 q 651 575 633 574 q 681 576 669 576 q 688 569 689 576 q 681 556 688 563 q 658 526 669 544 q 636 483 646 508 q 619 422 626 457 q 613 344 613 388 l 613 335 z "},"5":{"ha":685,"x_min":-19,"x_max":629,"o":"m 599 975 q 585 964 596 972 q 560 944 575 956 q 531 919 546 932 q 507 897 517 907 q 473 835 479 869 q 482 778 467 801 q 489 783 486 782 q 518 790 501 792 q 546 778 535 789 q 558 756 556 768 q 557 732 560 743 q 546 713 553 722 q 542 710 544 713 q 499 699 519 690 q 463 733 479 707 q 433 796 446 758 q 415 874 421 833 q 404 882 414 879 l 400 882 l 400 1004 l 236 1004 l 189 956 l 189 703 l 478 703 q 485 685 478 692 q 503 678 492 678 l 506 678 q 540 613 513 640 q 604 579 567 586 l 604 576 l 629 576 l 629 151 q 611 144 618 151 q 604 126 604 136 l 604 124 q 540 90 567 117 q 506 25 513 63 l 503 25 q 485 18 492 25 q 478 0 478 11 l 151 0 q 144 18 151 11 q 126 25 136 25 l 124 25 q 118 42 121 36 q 117 44 118 43 q 117 49 117 46 q 113 56 115 50 q 58 111 96 92 l 50 115 l 25 124 l 25 126 q 18 144 25 136 q 0 151 11 151 l 0 157 q 7 171 3 160 q 17 197 11 182 q 33 229 24 213 q 54 258 42 246 q 99 337 90 294 q 88 411 107 379 q 83 408 85 408 q 79 404 82 407 q 42 395 63 393 q 6 413 21 397 q -8 472 -19 438 q 6 494 -3 488 q 10 499 7 499 q 64 513 38 524 q 113 469 90 503 q 151 388 135 436 q 174 289 167 339 q 189 278 178 281 q 193 276 190 276 l 193 172 l 239 126 l 390 126 l 440 176 l 440 526 l 390 576 l 144 576 q 103 679 144 638 q 0 721 61 721 l 0 981 q 18 988 11 981 q 25 1006 25 994 l 25 1008 q 90 1042 63 1015 q 124 1107 117 1069 l 126 1107 q 144 1114 136 1107 q 151 1132 151 1121 l 190 1132 l 618 1132 q 629 1129 624 1129 l 629 1004 q 609 997 619 1004 q 599 975 599 990 z "},"6":{"ha":685,"x_min":0,"x_max":629,"o":"m 629 464 l 629 151 q 611 144 618 151 q 604 126 604 136 l 604 124 q 540 90 567 117 q 506 25 513 63 l 503 25 q 485 18 492 25 q 478 0 478 11 l 151 0 q 144 18 151 11 q 126 25 136 25 l 124 25 q 90 90 117 63 q 25 124 63 117 l 25 126 q 18 144 25 136 q 0 151 11 151 l 0 981 q 18 988 11 981 q 25 1006 25 994 l 25 1008 q 90 1042 63 1015 q 124 1107 117 1069 l 126 1107 q 144 1114 136 1107 q 151 1132 151 1121 l 478 1132 q 485 1114 478 1121 q 503 1107 492 1107 l 506 1107 q 540 1042 513 1069 q 604 1008 567 1015 l 604 1006 q 611 988 604 994 q 629 981 618 981 l 629 971 q 611 957 622 965 q 589 939 600 949 q 567 919 578 929 q 547 901 556 910 q 539 893 543 897 q 532 883 535 889 q 511 831 514 858 q 521 782 508 803 q 528 788 525 786 q 558 794 542 796 q 585 782 574 793 q 596 735 604 761 q 591 726 593 731 q 585 717 589 721 q 583 715 583 715 q 581 714 582 715 q 542 702 561 696 q 508 729 524 708 q 479 782 492 750 q 460 850 467 814 q 456 863 457 857 q 454 876 456 869 q 443 886 453 883 l 440 886 l 440 956 l 390 1006 l 239 1006 l 189 956 l 189 703 l 506 703 l 506 678 q 540 613 513 640 q 604 579 567 586 l 604 576 q 611 558 604 565 q 629 551 618 551 l 629 464 m 440 503 l 440 526 l 390 576 l 189 576 l 189 176 l 239 126 l 390 126 l 440 176 l 440 503 z "},"7":{"ha":714,"x_min":0,"x_max":658,"o":"m 658 990 l 367 126 l 386 25 q 367 0 367 19 l 178 0 q 172 16 178 10 q 157 25 165 22 l 178 126 l 450 907 l 450 981 l 425 1006 l 213 1006 l 213 885 l 210 885 q 199 875 200 882 q 196 862 197 868 q 193 849 194 856 q 174 780 186 813 q 145 726 161 747 q 110 700 129 706 q 72 713 92 694 q 70 714 71 714 q 68 715 69 714 q 57 733 61 722 q 68 779 49 760 q 95 792 79 790 q 125 786 111 794 q 132 781 129 782 q 142 829 144 801 q 121 882 139 857 q 106 899 115 892 q 65 937 90 915 q 24 969 39 958 l 21 1006 l 0 1107 q 15 1116 8 1110 q 21 1132 21 1122 l 638 1132 q 644 1116 638 1122 q 658 1107 650 1110 l 658 990 z "},"8":{"ha":685,"x_min":0,"x_max":629,"o":"m 629 806 q 611 798 618 806 q 604 779 604 790 q 607 768 604 772 l 506 696 l 506 678 q 540 613 513 640 q 604 579 567 586 l 604 576 q 611 558 604 565 q 629 551 618 551 l 629 464 l 629 151 q 611 144 618 151 q 604 126 604 136 l 604 124 q 540 90 567 117 q 506 25 513 63 l 503 25 q 485 18 492 25 q 478 0 478 11 l 151 0 q 144 18 151 11 q 126 25 136 25 l 124 25 q 90 90 117 63 q 25 124 63 117 l 25 126 q 18 144 25 136 q 0 151 11 151 l 0 464 l 0 551 q 18 558 11 551 q 25 576 25 565 l 25 579 q 90 613 63 586 q 124 678 117 640 l 124 696 l 22 768 q 25 779 25 776 q 18 798 25 790 q 0 806 11 806 l 0 981 q 18 988 11 981 q 25 1006 25 994 l 25 1008 q 90 1042 63 1015 q 124 1107 117 1069 l 126 1107 q 144 1114 136 1107 q 151 1132 151 1121 l 239 1132 l 390 1132 l 478 1132 q 485 1114 478 1121 q 503 1107 492 1107 l 506 1107 q 540 1042 513 1069 q 604 1008 567 1015 l 604 1006 q 611 988 604 994 q 629 981 618 981 l 629 806 m 189 703 l 189 753 l 239 703 l 390 703 l 440 753 l 440 842 l 440 956 l 390 1006 l 239 1006 l 189 956 l 189 842 l 189 703 m 440 503 l 440 526 l 390 576 l 239 576 l 189 526 l 189 503 l 189 176 l 239 126 l 390 126 l 440 176 l 440 503 z "},"9":{"ha":685,"x_min":-12,"x_max":629,"o":"m 604 1006 q 611 988 604 994 q 629 981 618 981 l 629 151 q 611 144 618 151 q 604 126 604 138 l 604 124 q 541 90 568 117 q 507 25 514 63 l 504 25 q 486 18 493 25 q 479 0 479 11 l 151 0 q 144 18 151 11 q 126 25 138 25 l 124 25 q 94 85 117 60 q 38 119 71 110 q 26 124 35 121 l 26 126 q 19 144 26 138 q 1 151 13 151 l 1 157 q 8 171 4 160 q 17 197 11 182 q 33 229 24 213 q 56 258 43 246 q 99 337 90 294 q 88 411 108 379 q 85 408 86 408 q 81 404 83 407 q 42 395 63 393 q 7 413 22 397 q -9 440 -6 424 q -7 472 -12 457 q 7 494 -4 485 q 11 499 8 499 q 65 513 39 524 q 113 469 92 503 q 151 388 135 436 q 175 289 167 339 q 189 278 181 278 q 193 276 190 276 l 193 172 l 215 151 l 240 126 l 390 126 l 442 176 l 442 578 l 125 578 l 125 603 l 124 603 q 90 666 117 639 q 26 700 63 693 l 26 703 q 19 721 26 714 q 1 728 13 728 l 1 981 q 19 988 13 981 q 26 1006 26 994 l 26 1008 q 90 1042 63 1015 q 124 1107 117 1069 l 126 1107 q 144 1114 138 1107 q 151 1132 151 1121 l 479 1132 q 486 1114 479 1121 q 504 1107 493 1107 l 507 1107 q 541 1042 514 1069 q 604 1008 568 1015 l 604 1006 m 442 956 l 390 1006 l 240 1006 l 189 956 l 189 753 l 240 703 l 442 703 l 442 956 z "},"\u0000":{"ha":0,"x_min":0,"x_max":0,"o":""},"\r":{"ha":417,"x_min":0,"x_max":0,"o":""}," ":{"ha":417,"x_min":0,"x_max":0,"o":""},"E":{"ha":689,"x_min":-57,"x_max":619,"o":"m 511 411 q 500 337 492 379 q 544 258 508 294 q 571 219 561 240 q 585 171 581 199 q 591 108 590 143 q 592 25 592 72 q 571 0 571 21 l 21 0 q 15 16 21 10 q 0 25 8 22 l 21 125 l 21 340 q 20 342 21 342 q 19 344 19 343 q 13 422 19 388 q -4 483 6 457 q -26 526 -14 508 q -47 556 -37 544 q -56 569 -54 563 q -47 576 -57 576 q -19 575 -36 576 q 21 569 -1 574 l 21 1006 l 0 1107 q 15 1116 8 1110 q 21 1132 21 1122 l 599 1132 q 619 1107 599 1111 l 599 1006 l 599 893 q 581 886 588 893 q 574 868 574 879 q 576 857 574 863 l 432 753 q 410 767 428 767 l 410 981 l 385 1006 l 233 1006 l 208 981 l 208 615 q 306 665 258 646 q 390 685 353 685 q 450 667 426 686 q 476 600 474 647 l 476 590 q 450 526 476 553 q 386 500 424 500 q 323 526 349 500 q 294 588 297 551 q 256 569 271 583 q 233 533 242 554 q 218 485 224 513 q 208 426 213 457 l 208 151 l 233 125 l 385 125 l 406 147 l 406 276 q 425 289 419 276 q 448 388 432 339 q 486 469 464 436 q 535 513 508 503 q 589 499 561 524 l 593 494 q 610 453 610 478 q 593 413 610 429 q 553 395 576 396 q 511 411 529 394 z "},"F":{"ha":689,"x_min":-57,"x_max":619,"o":"m 599 982 l 599 893 q 581 886 588 893 q 574 868 574 879 q 576 857 574 863 l 432 754 q 423 764 429 760 q 410 768 417 768 l 410 982 l 385 1007 l 233 1007 l 208 982 l 208 1007 l 208 617 q 305 666 258 647 q 389 685 351 685 q 450 667 426 686 q 476 600 474 647 l 476 592 q 450 526 476 553 q 386 500 424 500 q 322 526 349 500 q 294 589 296 551 q 256 569 271 583 q 233 535 242 556 q 218 486 224 514 q 208 428 213 458 l 208 126 l 229 25 q 215 16 221 22 q 208 0 208 10 l 19 0 q 0 25 19 19 l 19 126 l 19 340 l 19 346 q 13 423 19 389 q -4 483 6 457 q -26 526 -14 508 q -49 556 -39 544 q -56 570 -56 564 q -49 576 -57 576 q -19 575 -37 576 q 19 569 -1 574 l 19 1007 l 0 1107 q 19 1132 19 1111 l 599 1132 q 619 1107 599 1111 l 599 1007 l 599 982 z "},"G":{"ha":726,"x_min":-76,"x_max":629,"o":"m 629 893 q 611 886 618 893 q 604 868 604 879 q 607 857 604 860 l 463 754 q 453 764 460 760 q 440 768 447 768 l 440 956 l 390 1007 l 239 1007 l 189 956 l 189 569 q 228 575 210 574 q 257 576 246 576 q 265 570 265 576 q 257 556 264 564 q 234 526 246 544 q 213 483 222 508 q 196 423 203 457 q 189 346 189 389 l 189 335 l 189 176 l 239 126 l 390 126 l 440 176 l 440 478 l 417 501 q 333 467 368 494 q 292 403 299 440 q 339 381 319 401 q 358 333 358 361 q 338 285 358 306 q 289 264 318 264 q 282 265 285 264 q 232 287 247 267 q 217 339 217 307 q 231 410 217 371 q 267 491 244 450 q 318 572 289 532 q 378 642 347 611 l 439 704 l 440 703 l 440 704 l 478 704 q 485 686 478 693 q 503 679 492 679 l 506 679 q 506 676 506 678 q 507 674 507 675 q 508 671 507 671 q 509 667 508 668 q 510 664 510 667 q 510 662 510 663 q 511 658 511 661 l 515 650 q 518 645 517 647 q 521 640 519 643 q 526 632 524 635 q 529 627 528 629 q 533 622 531 625 q 604 582 561 590 l 604 579 q 611 561 604 568 q 629 554 618 554 l 629 151 q 611 144 618 151 q 604 126 604 138 l 604 124 q 540 90 567 117 q 506 25 513 63 l 503 25 q 485 18 492 25 q 478 0 478 11 l 151 0 q 144 18 151 11 q 126 25 136 25 l 124 25 q 90 90 117 63 q 25 124 63 117 l 25 126 q 18 144 25 138 q 0 151 11 151 l 0 371 q -26 490 -4 446 q -67 556 -47 535 q -75 570 -74 564 q -67 576 -76 576 q -38 575 -56 576 q 0 571 -21 574 l 0 982 q 18 989 11 982 q 25 1007 25 996 l 25 1008 q 90 1044 63 1017 q 124 1107 117 1071 l 126 1107 q 144 1114 136 1107 q 151 1132 151 1121 l 478 1132 q 485 1114 478 1121 q 503 1107 492 1107 l 506 1107 q 540 1044 513 1071 q 604 1008 567 1017 l 604 1007 q 611 989 604 996 q 629 982 618 982 l 629 893 l 629 893 z "},"D":{"ha":761,"x_min":-56,"x_max":650,"o":"m 625 1007 q 632 989 625 996 q 650 982 639 982 l 650 151 q 632 144 639 151 q 625 126 625 138 l 625 124 q 560 90 588 117 q 526 25 533 63 l 524 25 q 506 18 513 25 q 499 0 499 11 l 21 0 q 0 25 21 21 l 21 126 l 21 346 q 14 423 21 389 q -3 483 7 457 q -25 526 -12 508 q -47 556 -37 544 q -55 570 -54 564 q -47 576 -56 576 q -18 575 -36 576 q 21 571 0 574 l 21 1007 l 0 1107 q 21 1132 21 1111 l 499 1132 q 506 1114 499 1121 q 524 1107 513 1107 l 526 1107 q 560 1044 533 1071 q 625 1008 588 1017 l 625 1007 m 461 956 l 411 1007 l 235 1007 l 210 982 l 210 571 q 248 575 231 574 q 276 576 265 576 q 284 570 285 576 q 276 556 283 564 q 256 528 267 544 q 235 490 244 513 q 218 436 225 467 q 210 368 211 406 l 210 151 l 235 126 l 411 126 l 461 176 l 461 956 z "},"i":{"ha":299,"x_min":-1,"x_max":229,"o":"m 208 125 l 229 24 q 214 15 219 22 q 208 0 208 8 l 19 0 q 14 15 19 8 q -1 24 8 22 l 19 125 l 19 1006 l -1 1107 q 19 1132 19 1111 l 208 1132 q 229 1107 208 1111 l 208 1006 l 208 125 z "},"a":{"ha":776,"x_min":0,"x_max":707,"o":"m 707 25 q 688 0 688 19 l 486 0 q 465 25 486 21 l 481 125 l 479 138 q 422 235 463 199 q 328 283 381 272 q 260 281 283 289 l 226 125 l 254 25 q 240 16 246 22 q 233 0 233 10 l 19 0 q 0 25 19 19 l 38 125 l 233 1007 l 214 1107 q 233 1132 233 1111 l 474 1132 q 480 1116 474 1122 q 494 1107 486 1110 l 474 1007 l 669 125 l 707 25 m 290 419 q 429 364 353 403 l 354 715 l 290 419 z "},"b":{"ha":744,"x_min":0,"x_max":675,"o":"m 650 540 q 657 522 650 529 q 675 515 664 515 l 675 151 q 657 144 664 151 q 650 125 650 136 l 650 124 q 585 89 613 115 q 551 25 558 63 l 549 25 q 531 18 538 25 q 524 0 524 11 l 21 0 q 0 25 21 21 l 21 125 l 21 1006 l 0 1107 q 21 1132 21 1111 l 499 1132 q 506 1114 499 1121 q 524 1107 513 1107 l 526 1107 q 560 1042 533 1069 q 625 1008 588 1015 l 625 1006 q 632 988 625 994 q 650 981 639 981 l 650 692 q 632 685 639 692 q 625 667 625 678 l 625 664 q 540 604 569 653 q 585 558 557 576 q 650 540 614 540 m 436 125 l 486 176 l 486 503 l 474 503 l 467 503 q 365 474 408 503 q 313 401 321 446 q 356 379 338 399 q 374 333 374 360 q 356 286 374 306 q 310 264 338 267 l 307 264 l 304 264 q 290 265 297 264 q 276 269 283 267 q 251 289 260 275 q 235 333 235 308 q 239 358 235 346 q 258 428 243 390 q 294 503 272 465 q 343 577 317 542 q 399 642 369 613 l 460 704 l 461 703 l 461 956 l 411 1006 l 235 1006 l 210 981 l 210 151 l 235 125 l 436 125 z "},"c":{"ha":711,"x_min":0,"x_max":643,"o":"m 542 411 q 530 336 521 379 q 574 257 539 293 q 596 228 586 244 q 612 196 606 211 q 622 169 618 181 q 629 157 626 158 l 629 150 q 611 143 618 150 q 604 125 604 136 q 604 122 604 122 q 578 114 590 121 q 569 111 575 114 q 515 54 535 93 q 513 47 515 53 q 511 44 511 46 q 510 40 511 43 q 506 25 508 36 l 503 25 q 485 17 492 25 q 478 0 478 10 l 151 0 q 144 17 151 10 q 125 25 136 25 q 124 24 125 25 q 88 88 115 61 q 25 122 61 115 l 25 125 q 18 143 25 136 q 0 150 11 150 l 0 981 q 18 988 11 981 q 25 1006 25 994 l 25 1008 q 88 1042 61 1015 q 124 1107 115 1069 l 125 1107 q 144 1114 136 1107 q 151 1132 151 1121 l 478 1132 q 485 1114 478 1121 q 503 1107 492 1107 q 506 1107 506 1107 q 540 1042 513 1069 q 604 1008 567 1015 l 604 1006 q 611 988 604 994 q 629 981 618 981 l 629 892 q 611 885 618 892 q 604 867 604 878 q 606 856 604 860 l 463 753 q 440 767 456 767 l 440 956 l 390 1006 l 239 1006 l 189 956 l 189 175 l 239 125 l 390 125 l 436 171 l 436 276 l 440 276 q 456 288 451 279 q 478 386 463 338 q 516 468 494 435 q 564 513 538 501 q 618 499 590 524 l 622 494 q 638 471 633 483 q 639 440 643 456 q 622 411 635 424 q 587 394 607 396 q 550 404 567 393 q 542 411 547 406 z "},"d":{"ha":719,"x_min":0,"x_max":650,"o":"m 625 1006 q 632 988 625 994 q 650 981 639 981 l 650 150 q 632 143 639 150 q 625 125 625 136 l 625 122 q 560 88 588 115 q 526 25 533 61 l 524 25 q 506 17 513 25 q 499 0 499 10 l 21 0 q 15 15 21 8 q 0 24 10 22 l 21 125 l 21 1006 l 0 1107 q 21 1132 21 1111 l 499 1132 q 506 1114 499 1121 q 524 1107 513 1107 q 526 1107 526 1107 q 560 1042 533 1069 q 625 1008 588 1015 l 625 1006 m 411 125 l 461 175 l 461 956 l 411 1006 l 235 1006 l 210 981 l 210 150 l 235 125 l 411 125 z "},"e":{"ha":675,"x_min":0,"x_max":619,"o":"m 511 410 q 500 336 492 379 q 544 257 508 293 q 572 219 561 239 q 589 172 582 199 q 603 108 596 144 q 619 24 610 72 q 604 15 610 22 q 599 0 599 8 l 19 0 q 14 15 19 8 q 0 24 8 22 l 21 125 l 21 503 q 15 517 21 511 q 0 522 8 522 l 0 608 q 15 614 8 608 q 21 628 21 619 l 21 1006 l 0 1107 q 19 1132 19 1111 l 599 1132 q 619 1107 599 1111 l 599 1006 l 599 892 q 581 885 588 892 q 574 867 574 878 q 576 856 574 864 l 432 753 q 410 767 425 767 l 410 981 l 385 1006 l 233 1006 l 208 981 l 208 628 l 224 628 l 389 728 q 410 717 396 717 l 410 429 q 389 417 394 429 l 247 503 l 208 503 l 208 150 l 233 125 l 385 125 l 407 146 l 407 276 q 425 288 421 276 q 448 388 432 339 q 486 469 464 436 q 535 513 508 503 q 589 499 561 524 l 593 494 q 610 453 610 478 q 593 411 610 429 q 553 394 576 394 q 511 410 529 394 z "},"f":{"ha":675,"x_min":0,"x_max":619,"o":"m 599 981 l 599 892 q 581 885 588 892 q 574 867 574 878 q 576 856 574 864 l 432 753 q 410 767 425 767 l 410 981 l 385 1006 l 233 1006 l 208 981 l 208 1006 l 208 628 l 224 628 l 389 728 q 410 717 396 717 l 410 429 q 389 417 394 429 l 247 503 l 208 503 l 208 125 l 229 24 q 214 15 219 22 q 208 0 208 8 l 19 0 q 14 15 19 8 q 0 24 8 22 l 21 125 l 21 503 q 15 517 21 511 q 0 522 8 522 l 0 608 q 15 614 8 608 q 21 628 21 619 l 21 1006 l 0 1107 q 19 1132 19 1111 l 599 1132 q 619 1107 599 1111 l 599 1006 l 599 981 z "},"g":{"ha":699,"x_min":0,"x_max":629,"o":"m 629 892 q 611 885 618 892 q 604 867 604 878 q 607 856 604 864 l 463 753 q 440 767 456 767 l 440 956 l 390 1006 l 239 1006 l 189 956 l 189 175 l 239 125 l 390 125 l 440 175 l 440 478 l 418 500 q 335 466 369 493 q 292 401 300 439 q 340 380 319 400 q 360 332 360 360 q 339 284 360 304 q 290 264 318 264 l 282 264 q 232 285 247 265 q 217 338 217 306 q 231 409 218 369 q 267 490 244 449 q 318 570 289 531 q 378 640 347 610 l 439 703 l 440 704 l 440 703 l 440 701 l 440 704 l 479 704 q 486 686 479 693 q 504 679 493 679 l 506 679 l 507 679 q 508 672 507 675 l 508 669 q 510 666 510 667 q 511 663 510 665 q 513 658 511 660 q 515 653 514 656 q 517 649 515 651 l 521 640 q 524 636 522 638 q 526 632 525 635 q 530 627 529 629 q 533 622 531 625 q 604 581 563 589 l 604 578 q 611 560 604 567 q 629 553 618 553 l 629 150 q 611 143 618 150 q 604 125 604 136 l 604 122 q 541 88 568 115 q 506 25 514 61 l 504 25 q 486 17 493 25 q 479 0 479 10 l 151 0 q 144 17 151 10 q 126 25 138 25 q 124 24 125 25 q 90 88 117 61 q 25 122 63 115 l 25 125 q 18 143 25 136 q 0 150 11 150 l 0 981 q 18 988 11 981 q 25 1006 25 994 q 25 1008 25 1008 q 90 1042 63 1015 q 124 1107 117 1069 l 126 1107 q 144 1114 138 1107 q 151 1132 151 1121 l 479 1132 q 486 1114 479 1121 q 504 1107 493 1107 q 506 1107 504 1107 q 541 1042 514 1069 q 604 1008 568 1015 l 604 1006 q 611 988 604 994 q 629 981 618 981 l 629 892 l 629 892 z "},"h":{"ha":811,"x_min":0,"x_max":742,"o":"m 722 126 l 742 25 q 722 0 722 19 l 533 0 q 513 25 533 21 l 533 126 l 533 492 q 472 474 504 474 q 396 505 428 474 q 363 581 364 536 q 265 518 306 568 q 208 397 224 468 l 208 126 l 229 25 q 208 0 208 21 l 21 0 q 0 25 21 21 l 21 126 l 21 1006 l 0 1107 q 21 1132 21 1111 l 208 1132 q 229 1107 208 1111 l 208 1006 l 208 606 q 303 654 256 633 q 392 687 350 675 q 472 699 435 699 q 533 685 508 699 l 533 1006 l 513 1107 q 533 1132 533 1111 l 722 1132 q 742 1107 722 1111 l 722 1006 l 722 126 z "},"j":{"ha":649,"x_min":-18,"x_max":579,"o":"m 560 1126 q 579 1101 560 1106 l 558 1000 l 558 150 q 540 143 547 150 q 533 125 533 136 q 534 124 533 124 q 535 122 535 124 q 470 88 497 115 q 436 25 443 61 l 433 25 q 415 17 422 25 q 408 0 408 10 l 151 0 q 144 17 151 10 q 126 25 138 25 q 124 24 126 25 q 90 88 117 61 q 26 122 63 115 l 26 125 q 19 143 26 136 q 0 150 11 150 l 0 315 l 1 315 q 8 329 4 318 q 19 355 13 340 q 34 386 25 369 q 56 415 43 403 q 99 494 90 451 q 88 568 108 538 q 83 565 85 567 q 79 563 82 564 q 42 553 63 551 q 7 569 22 554 q -7 629 -18 594 q 7 653 -6 640 l 11 657 q 65 671 39 682 q 113 626 92 660 q 151 544 135 593 q 175 446 167 496 q 190 435 179 438 l 193 435 l 193 157 l 189 157 l 189 125 l 333 125 l 383 175 l 383 1000 l 364 1101 q 383 1126 383 1106 l 560 1126 l 560 1126 z "},"k":{"ha":771,"x_min":0,"x_max":729,"o":"m 729 24 q 710 -1 710 18 l 521 -1 q 500 24 521 19 l 503 125 l 383 483 q 337 449 356 469 q 311 401 318 428 q 359 380 339 400 q 379 332 379 360 q 358 284 379 304 q 310 264 338 264 l 303 264 q 253 285 268 265 q 238 338 238 306 q 251 409 238 369 q 286 490 264 449 q 338 570 308 531 q 397 640 367 610 l 460 703 l 461 701 l 461 1006 l 440 1107 q 455 1116 449 1110 q 461 1132 461 1122 l 654 1132 q 669 1108 654 1115 l 650 1006 l 650 690 q 632 683 639 690 q 625 665 625 676 q 624 663 625 665 q 540 603 569 651 q 535 594 538 599 q 532 585 533 589 l 692 125 l 729 24 m 210 1006 l 210 125 l 229 24 q 215 15 221 21 q 208 -1 208 8 l 21 -1 q 15 15 21 8 q 0 24 8 21 l 21 125 l 21 1006 l 0 1106 q 15 1115 8 1108 q 21 1131 21 1122 l 214 1131 q 229 1107 214 1114 l 210 1006 z "},"l":{"ha":678,"x_min":0,"x_max":614,"o":"m 547 257 q 571 219 565 239 q 578 172 576 199 q 583 108 581 144 q 594 24 585 72 q 581 15 586 22 q 575 0 575 8 l 19 0 q 14 15 19 8 q 0 24 8 22 l 21 125 l 21 1006 l 0 1107 q 19 1132 19 1111 l 208 1132 q 215 1116 208 1122 q 229 1107 221 1110 l 210 1006 l 210 125 l 210 150 l 233 125 l 410 125 l 410 276 q 429 288 422 276 q 452 388 436 339 q 490 469 468 436 q 538 513 511 503 q 592 499 564 524 l 596 494 q 614 453 614 478 q 596 411 614 429 q 556 394 579 394 q 515 410 532 394 q 503 336 494 379 q 547 257 513 293 z "},"m":{"ha":971,"x_min":0,"x_max":901,"o":"m 882 125 l 901 24 q 888 15 893 22 q 882 0 882 8 l 693 0 q 688 15 693 8 q 672 24 682 22 l 693 125 l 693 667 l 490 274 l 411 274 l 208 665 l 208 125 l 229 24 q 215 15 221 22 q 210 0 210 8 l 21 0 q 15 15 21 8 q 0 24 8 22 l 19 125 l 19 1006 l 0 1107 q 15 1116 8 1110 q 21 1132 21 1122 l 210 1132 q 229 1107 210 1111 l 210 1011 l 451 579 l 692 1013 l 672 1107 q 693 1132 693 1111 l 882 1132 q 901 1107 882 1111 l 882 1006 l 882 125 z "},"n":{"ha":811,"x_min":0,"x_max":742,"o":"m 722 125 l 742 25 q 722 0 722 19 l 533 0 q 513 25 533 21 l 533 125 l 533 208 l 210 743 l 210 125 l 229 25 q 215 16 221 22 q 208 0 208 10 l 21 0 q 15 16 21 10 q 0 25 8 22 l 21 125 l 21 1006 l 0 1107 q 15 1116 8 1110 q 21 1132 21 1122 l 208 1132 q 215 1116 208 1122 q 229 1107 221 1110 l 215 1036 l 533 525 l 533 1006 l 513 1107 q 533 1132 533 1111 l 722 1132 q 742 1107 722 1111 l 722 1006 l 722 125 z "},"o":{"ha":699,"x_min":0,"x_max":629,"o":"m 604 1011 q 611 994 604 1001 q 629 986 618 986 l 629 157 q 611 150 618 157 q 604 132 604 143 l 604 129 q 540 95 567 122 q 506 31 513 68 l 503 31 q 485 24 492 31 q 478 6 478 17 l 151 6 q 144 24 151 17 q 125 31 136 31 l 124 31 q 89 95 115 68 q 25 129 63 122 l 25 132 q 18 150 25 143 q 0 157 11 157 l 0 986 q 18 994 11 986 q 25 1011 25 1001 l 25 1014 q 88 1048 61 1021 q 124 1113 115 1075 l 125 1113 q 144 1119 136 1113 q 151 1138 151 1126 l 478 1138 q 485 1119 478 1126 q 503 1113 492 1113 l 506 1113 q 540 1048 513 1075 q 604 1014 567 1021 l 604 1011 m 440 961 l 390 1013 l 239 1013 l 189 961 l 189 182 l 239 132 l 390 132 l 440 182 l 440 961 z "},"p":{"ha":718,"x_min":0,"x_max":649,"o":"m 624 1006 q 631 988 624 994 q 649 981 638 981 l 649 692 q 631 684 638 692 q 624 665 624 676 l 624 664 q 540 603 568 650 q 526 565 531 588 q 524 553 525 558 q 524 540 524 547 l 524 528 q 506 521 513 528 q 499 503 499 514 l 472 503 l 467 503 q 364 474 407 503 q 311 401 321 444 q 359 380 339 400 q 379 332 379 360 q 358 284 379 304 q 310 264 338 264 l 303 264 q 253 285 268 265 q 238 338 238 306 q 251 409 238 369 q 286 490 264 449 q 338 570 308 531 q 397 640 367 610 l 460 704 l 460 703 l 460 956 l 410 1006 l 235 1006 l 208 981 l 208 125 l 229 24 q 215 15 219 22 q 210 0 210 8 l 21 0 q 15 15 21 8 q 0 24 8 22 l 19 125 l 19 1006 l 0 1107 q 15 1116 8 1110 q 21 1132 21 1122 l 499 1132 q 506 1114 499 1121 q 524 1107 513 1107 q 526 1107 526 1107 q 560 1042 533 1069 q 624 1008 588 1015 l 624 1006 l 624 1006 z "},"q":{"ha":693,"x_min":0,"x_max":693,"o":"m 604 -72 q 667 -98 640 -72 q 693 -160 693 -124 q 692 -169 693 -167 q 666 -231 689 -211 q 606 -251 643 -250 q 523 -239 569 -253 q 427 -200 476 -225 q 329 -142 378 -175 q 240 -72 281 -108 l 240 -1 l 151 -1 q 144 17 151 10 q 126 24 138 24 l 124 24 q 90 88 117 61 q 25 122 63 115 l 25 125 q 18 143 25 136 q 0 150 11 150 l 0 981 q 18 988 11 981 q 25 1006 25 994 q 25 1008 25 1006 q 90 1042 63 1015 q 124 1106 117 1069 l 126 1106 q 144 1113 138 1106 q 151 1131 151 1119 l 479 1131 q 486 1113 479 1119 q 504 1106 493 1106 l 506 1106 q 541 1042 514 1069 q 604 1008 568 1015 l 604 1006 q 611 988 604 994 q 629 981 618 981 l 629 150 q 611 143 618 150 q 604 125 604 136 l 604 122 q 541 88 568 115 q 506 24 514 61 l 504 24 q 486 17 493 24 q 479 -1 479 10 l 393 -1 q 436 -105 403 -62 q 517 -157 469 -147 q 543 -97 518 -121 q 604 -72 568 -72 m 239 1006 l 189 956 l 189 175 l 239 125 l 390 125 l 440 175 l 440 956 l 390 1006 l 239 1006 z "},"r":{"ha":771,"x_min":0,"x_max":729,"o":"m 729 24 q 715 15 721 22 q 710 0 710 8 l 521 0 q 515 15 521 8 q 500 24 510 22 l 503 125 l 383 485 q 311 401 324 457 q 359 380 339 400 q 379 332 379 360 q 358 284 379 304 q 310 264 338 264 l 303 264 q 253 285 268 265 q 238 338 238 306 q 251 409 238 369 q 286 490 264 449 q 338 570 308 531 q 397 640 367 610 l 460 704 l 461 703 l 461 956 l 410 1006 l 233 1006 l 210 981 l 210 125 l 229 24 q 215 15 221 22 q 208 0 208 8 l 19 0 q 14 15 19 8 q 0 24 8 22 l 21 125 l 21 1006 l 0 1107 q 19 1132 19 1111 l 499 1132 q 506 1114 499 1121 q 524 1107 513 1107 q 526 1107 524 1107 q 560 1042 533 1069 q 624 1008 588 1015 q 624 1007 624 1007 q 625 1006 625 1007 q 632 988 625 994 q 650 981 639 981 l 650 692 q 632 684 639 692 q 625 665 625 676 l 624 664 q 540 603 569 651 q 532 585 533 594 l 692 125 l 729 24 z "},"s":{"ha":696,"x_min":-29,"x_max":626,"o":"m 626 893 q 608 886 615 893 q 601 868 601 879 q 604 857 601 863 l 461 753 q 438 767 454 767 l 438 1006 l 438 956 l 388 1006 l 236 1006 l 186 956 l 186 814 l 606 535 q 601 522 601 531 q 608 504 601 511 q 626 497 615 497 l 626 151 q 608 144 615 151 q 601 125 601 136 l 601 124 q 538 90 565 117 q 503 25 511 63 l 501 25 q 483 18 490 25 q 475 0 475 11 l 136 0 q 129 18 136 11 q 111 25 122 25 l 108 25 q 74 90 101 63 q 10 124 47 117 l 10 125 q 3 144 10 136 q -15 151 -4 151 l -15 297 q -8 310 -12 299 q 2 336 -4 321 q 18 368 8 351 q 40 397 28 385 q 84 476 75 433 q 72 551 93 519 q 64 544 67 546 q 26 535 47 533 q -10 553 6 538 q -25 580 -21 564 q -24 611 -29 596 q -17 624 -21 618 q -10 635 -14 629 q -4 639 -7 636 q 50 653 24 664 q 98 610 76 643 q 135 528 119 576 q 158 429 151 479 q 174 417 163 419 l 178 417 l 178 182 l 188 161 l 224 125 l 388 125 l 438 176 l 438 125 l 438 435 l 19 714 q 22 726 22 717 q 15 744 22 738 q -3 751 8 751 l -3 981 q 15 988 8 981 q 22 1006 22 994 l 22 1008 q 87 1042 60 1015 q 121 1107 114 1069 l 124 1107 q 142 1114 135 1107 q 149 1132 149 1121 l 475 1132 q 483 1114 475 1121 q 501 1107 490 1107 l 503 1107 q 538 1042 511 1069 q 601 1008 565 1015 l 601 1006 q 608 988 601 994 q 626 981 615 981 l 626 893 l 626 893 z "},"t":{"ha":744,"x_min":0,"x_max":703,"o":"m 693 1135 q 703 1132 699 1132 l 703 1006 q 684 999 694 1006 q 674 976 674 993 q 665 967 671 975 q 649 947 658 958 q 630 922 640 935 q 610 899 619 908 q 576 838 582 871 q 585 781 569 804 q 590 785 589 785 q 620 792 604 794 q 647 779 636 790 q 658 733 668 758 q 647 715 657 725 q 644 713 644 713 q 602 701 622 693 q 565 735 582 710 q 536 799 549 761 q 518 875 524 836 q 506 885 514 882 l 503 885 l 503 1006 l 471 1006 l 446 982 l 446 126 l 467 25 q 452 16 458 22 q 446 0 446 10 l 257 0 q 238 25 257 19 l 257 126 l 257 1006 l 257 981 l 235 1004 l 200 1004 l 200 882 l 197 882 q 186 874 188 879 q 168 796 181 833 q 139 733 156 758 q 101 699 122 707 q 60 710 81 690 q 56 713 57 713 q 49 722 51 717 q 44 732 47 726 q 56 778 35 757 q 83 790 67 789 q 113 783 99 792 q 119 778 115 782 q 128 835 135 801 q 93 897 121 869 q 73 919 83 907 q 54 944 63 932 q 39 964 46 956 q 31 975 32 972 q 20 997 31 990 q 0 1004 10 1004 l 0 1129 q 11 1132 3 1129 l 693 1135 l 693 1135 z "},"u":{"ha":725,"x_min":0,"x_max":669,"o":"m 649 1125 q 655 1110 649 1117 q 669 1101 661 1103 l 649 1000 l 649 151 q 631 144 638 151 q 624 126 624 136 l 624 124 q 560 90 588 117 q 526 25 533 63 l 524 25 q 506 18 513 25 q 499 0 499 11 l 171 0 q 164 18 171 11 q 146 25 157 25 l 143 25 q 109 90 136 63 q 46 124 82 117 l 46 126 q 38 144 46 136 q 21 151 31 151 l 21 1000 l 0 1101 q 15 1110 8 1103 q 21 1125 21 1117 l 208 1125 q 215 1110 208 1117 q 229 1101 221 1103 l 208 1000 l 208 176 l 260 126 l 410 126 l 461 176 l 461 1000 l 440 1101 q 455 1110 449 1103 q 461 1125 461 1117 l 649 1125 l 649 1125 z "},"v":{"ha":761,"x_min":0,"x_max":719,"o":"m 682 1007 l 486 125 l 507 25 q 492 16 499 22 q 486 0 486 10 l 246 0 q 226 25 246 19 l 246 125 l 50 1007 l 0 1107 q 19 1132 19 1111 l 246 1132 q 252 1116 246 1122 q 267 1107 258 1110 l 239 1007 l 367 417 l 493 1007 l 478 1107 q 499 1132 499 1111 l 700 1132 q 719 1107 700 1111 l 682 1007 z "},"w":{"ha":1254,"x_min":0,"x_max":1199,"o":"m 1160 1007 l 965 125 l 985 25 q 970 16 976 22 q 964 0 964 10 l 724 0 q 704 25 724 19 l 724 125 l 606 660 l 486 125 l 507 25 q 492 16 499 22 q 486 0 486 10 l 246 0 q 226 25 246 19 l 246 125 l 50 1007 l 0 1107 q 19 1132 19 1111 l 246 1132 q 252 1116 246 1122 q 267 1107 258 1110 l 239 1007 l 367 417 l 493 1007 l 479 1106 l 478 1107 q 492 1116 486 1110 q 499 1132 499 1122 l 725 1132 q 744 1107 725 1111 l 717 1007 l 844 417 l 972 1007 l 957 1107 q 976 1132 976 1111 l 1178 1132 q 1199 1107 1178 1111 l 1160 1007 z "},"x":{"ha":669,"x_min":0,"x_max":669,"o":"m 618 126 l 669 25 q 649 0 649 21 l 422 0 q 403 25 422 19 l 431 126 l 335 386 l 239 126 l 267 25 q 252 16 258 22 q 246 0 246 10 l 19 0 q 0 25 19 19 l 50 126 l 222 586 l 50 1007 l 0 1107 q 19 1132 19 1111 l 246 1132 q 252 1116 246 1122 q 267 1107 258 1110 l 239 1007 l 335 768 l 431 1007 l 403 1107 q 422 1132 422 1111 l 649 1132 q 669 1107 649 1111 l 618 1007 l 447 586 l 618 126 z "},"y":{"ha":788,"x_min":0,"x_max":746,"o":"m 475 503 l 475 126 l 496 25 q 481 16 488 22 q 475 0 475 10 l 288 0 q 281 16 288 10 q 267 25 275 22 l 288 126 l 288 476 l 286 478 l 63 1006 l 0 1107 q 19 1132 19 1111 l 233 1132 q 240 1116 233 1122 q 254 1107 246 1110 l 239 1006 l 372 682 l 506 1006 l 504 1107 q 524 1132 524 1111 l 725 1132 q 746 1107 725 1111 l 694 1006 l 478 515 l 475 503 z "},"z":{"ha":739,"x_min":0,"x_max":669,"o":"m 669 25 q 655 16 661 22 q 649 0 649 10 l 461 0 l 192 0 l 21 0 q 15 16 21 10 q 0 25 8 22 l 21 126 l 21 232 l 21 246 q 39 253 32 246 q 46 271 46 260 q 42 283 46 279 l 461 939 l 461 1006 l 225 1006 l 225 774 l 221 774 q 207 763 211 771 q 183 664 199 713 q 145 582 167 615 q 97 538 124 549 q 43 551 71 526 l 39 556 q 25 579 26 568 q 39 639 14 614 q 74 656 54 654 q 113 646 94 657 q 119 639 117 643 q 131 714 140 671 q 88 793 122 757 q 66 822 75 806 q 51 852 57 838 q 40 878 44 867 q 33 893 36 890 l 33 926 l 32 926 l 32 1006 l 13 1107 q 32 1132 32 1111 l 183 1132 l 247 1132 l 435 1132 l 499 1132 l 649 1132 q 655 1116 649 1122 q 669 1107 661 1110 l 649 1006 l 649 876 q 631 869 638 876 q 624 851 624 863 q 628 839 624 844 l 208 183 l 208 126 l 208 176 l 260 126 l 410 126 l 446 161 l 457 182 l 457 417 l 461 417 q 475 429 471 419 q 499 528 483 479 q 537 610 515 576 q 585 653 558 643 q 639 639 611 664 l 643 635 q 657 611 656 622 q 659 580 663 596 q 643 553 656 564 q 608 535 628 538 q 571 544 588 533 q 563 551 565 546 q 551 476 542 519 q 594 397 560 433 q 616 368 607 385 q 631 337 625 351 q 642 311 638 322 q 649 297 646 300 l 649 206 l 649 126 l 669 25 z "},"H":{"ha":868,"x_min":-56,"x_max":799,"o":"m 722 333 l 722 125 l 743 24 q 728 15 733 22 q 722 0 722 8 l 533 0 q 528 15 533 8 q 514 24 522 22 l 533 125 l 533 492 q 472 472 507 472 q 396 503 428 472 q 363 579 364 535 q 278 533 315 569 q 222 442 242 496 q 210 339 210 400 l 210 338 l 210 125 l 229 24 q 215 15 221 22 q 210 0 210 8 l 21 0 q 15 15 21 8 q 0 24 8 22 l 21 125 l 21 361 q -6 483 17 438 q -47 549 -28 528 q -55 563 -54 557 q -47 569 -56 569 q -18 568 -36 569 q 21 564 0 567 l 21 1006 l 0 1107 q 15 1116 8 1110 q 21 1132 21 1122 l 210 1132 q 229 1107 210 1111 l 210 1006 l 210 606 q 304 654 257 633 q 394 686 351 675 q 472 697 436 697 q 533 683 508 697 l 533 1006 l 514 1107 q 533 1132 533 1111 l 722 1132 q 743 1107 722 1111 l 722 1006 l 722 563 q 761 568 743 567 q 790 569 779 569 q 798 563 799 569 q 790 549 797 557 q 767 519 779 538 q 746 476 756 501 q 729 416 736 450 q 722 339 722 382 l 722 333 z "},"I":{"ha":356,"x_min":-56,"x_max":286,"o":"m 210 336 l 210 126 l 229 25 q 210 0 210 19 l 21 0 q 0 25 21 21 l 21 126 l 21 369 q -6 490 17 444 q -47 556 -28 535 q -55 570 -54 564 q -47 576 -56 576 q -18 575 -36 576 q 21 571 0 574 l 21 1007 l 0 1107 q 21 1132 21 1111 l 210 1132 q 229 1107 210 1111 l 210 1007 l 210 569 q 249 575 231 574 q 278 576 267 576 q 285 570 286 576 q 278 556 285 564 q 255 526 267 544 q 233 483 243 508 q 217 423 224 457 q 210 346 210 389 l 210 336 z "},"J":{"ha":704,"x_min":-19,"x_max":635,"o":"m 626 576 q 634 570 635 576 q 626 556 633 564 q 603 526 615 544 q 582 483 592 508 q 565 423 572 457 q 558 346 558 389 l 558 340 l 558 151 q 540 144 547 151 q 533 126 533 138 l 533 124 q 469 90 496 117 q 435 25 442 63 l 432 25 q 415 18 422 25 q 407 0 407 11 l 151 0 q 144 18 151 11 q 126 25 138 25 l 124 25 q 90 90 117 63 q 25 124 63 117 l 25 126 q 18 144 25 138 q 0 151 11 151 l 0 310 l 0 315 q 7 329 3 318 q 17 356 11 340 q 33 388 24 371 q 54 417 42 404 q 99 495 90 453 q 88 569 107 538 q 83 566 85 567 q 79 563 82 565 q 41 553 61 551 q 6 571 21 556 q -8 631 -19 596 q 6 654 -4 644 l 10 658 q 64 672 38 683 q 113 628 90 661 q 151 546 135 594 q 174 447 167 497 q 189 436 178 439 q 193 435 190 435 l 193 158 l 189 158 l 189 126 l 332 126 l 382 176 l 382 286 q 371 346 371 301 q 364 423 371 389 q 347 483 357 457 q 324 526 336 508 q 303 556 313 544 q 295 570 296 564 q 303 576 294 576 q 337 575 315 576 q 382 568 358 574 l 382 1001 l 363 1103 q 382 1128 382 1107 l 558 1128 q 579 1103 558 1107 l 558 1001 l 558 569 q 597 575 579 574 q 626 576 615 576 z "},"K":{"ha":799,"x_min":-57,"x_max":729,"o":"m 729 25 q 710 0 710 19 l 521 0 q 500 25 521 21 l 503 126 l 383 485 q 336 450 356 471 q 311 403 317 429 q 359 381 339 401 q 379 333 379 361 q 358 284 379 304 q 310 264 338 264 l 301 264 q 251 286 267 265 q 237 338 236 307 q 251 410 238 369 q 286 491 264 450 q 338 572 308 532 q 397 642 367 611 l 460 704 l 460 703 l 460 1007 l 440 1107 q 460 1132 460 1111 l 654 1132 q 669 1110 654 1115 l 649 1007 l 649 692 q 631 685 638 692 q 624 667 624 678 l 624 664 q 540 604 569 653 q 532 585 533 593 l 692 126 l 729 25 m 208 126 l 229 25 q 215 16 221 22 q 208 0 208 10 l 19 0 q 0 25 19 19 l 19 126 l 19 346 q 13 423 19 389 q -4 483 6 457 q -26 526 -14 508 q -49 556 -39 544 q -56 570 -56 564 q -49 576 -57 576 q -19 575 -37 576 q 19 571 -1 574 l 19 1006 l 0 1107 q 19 1132 19 1111 l 214 1132 q 229 1108 214 1115 l 208 1006 l 208 571 q 247 575 229 574 q 276 576 265 576 q 284 570 285 576 q 276 556 283 564 q 235 490 257 535 q 208 368 213 444 l 208 126 z "},"L":{"ha":692,"x_min":-57,"x_max":614,"o":"m 547 258 q 571 219 565 240 q 578 172 576 199 q 583 108 581 144 q 594 25 585 72 q 575 0 575 19 l 21 0 q 15 16 21 10 q 0 25 8 22 l 21 126 l 21 343 l 21 346 q 14 423 21 389 q -3 483 7 457 q -26 526 -14 508 q -47 556 -37 544 q -56 569 -54 563 q -47 576 -57 576 q -19 575 -36 576 q 21 569 -1 574 l 21 1006 l 0 1107 q 15 1116 8 1110 q 21 1132 21 1122 l 208 1132 q 215 1116 208 1122 q 229 1107 221 1110 l 208 1006 l 208 569 q 247 575 229 574 q 276 576 265 576 q 284 569 285 576 q 276 556 283 563 q 235 489 257 533 q 208 368 213 444 l 208 126 l 208 151 l 235 126 l 410 126 l 410 276 q 429 289 422 276 q 452 388 436 339 q 490 469 468 436 q 538 513 511 503 q 592 499 564 524 q 597 494 594 499 q 614 453 614 478 q 597 413 614 429 q 556 395 579 396 q 515 411 532 394 q 503 337 494 379 q 547 258 513 294 z "},"M":{"ha":1028,"x_min":-56,"x_max":958,"o":"m 882 335 l 882 126 l 901 25 q 882 0 882 19 l 693 0 q 672 25 693 21 l 693 126 l 693 667 l 490 275 l 411 275 l 208 665 l 208 126 l 229 25 q 215 16 221 22 q 208 0 208 10 l 21 0 q 15 16 21 10 q 0 25 8 22 l 21 126 l 21 367 q -6 489 17 444 q -47 556 -28 533 q -55 569 -54 563 q -47 576 -56 576 q -18 575 -36 576 q 21 569 0 574 l 21 1006 l 0 1107 q 15 1116 8 1110 q 21 1132 21 1122 l 208 1132 q 215 1116 208 1122 q 229 1107 221 1110 l 210 1013 l 450 581 l 692 1014 l 672 1107 q 693 1132 693 1111 l 882 1132 q 901 1107 882 1111 l 882 1006 l 882 569 q 921 575 903 574 q 950 576 939 576 q 958 569 958 576 q 950 556 957 563 q 927 526 939 544 q 906 483 915 508 q 889 423 896 457 q 882 346 882 389 l 882 335 z "},"N":{"ha":868,"x_min":-56,"x_max":799,"o":"m 722 335 l 722 126 l 743 25 q 722 0 722 21 l 533 0 q 514 25 533 19 l 533 126 l 533 208 l 210 743 l 210 126 l 229 25 q 210 0 210 19 l 21 0 q 0 25 21 21 l 21 126 l 21 363 q -5 488 18 442 q -47 556 -28 533 q -55 569 -54 563 q -47 576 -56 576 q -18 575 -36 576 q 21 569 0 574 l 21 1007 l 0 1108 q 15 1117 10 1110 q 21 1132 21 1124 l 210 1132 q 215 1117 210 1124 q 229 1108 221 1110 l 215 1036 l 533 526 l 533 1007 l 514 1108 q 528 1117 522 1110 q 533 1132 533 1124 l 722 1132 q 728 1117 722 1124 q 743 1108 733 1110 l 722 1007 l 722 569 q 761 575 743 574 q 790 576 779 576 q 798 569 799 576 q 790 556 797 563 q 769 526 781 544 q 747 483 757 508 q 729 423 736 457 q 722 346 722 389 l 722 335 z "},"O":{"ha":788,"x_min":-76,"x_max":704,"o":"m 696 571 q 703 564 704 571 q 696 550 703 557 q 674 521 686 539 q 652 477 663 503 q 635 417 642 451 q 628 340 628 383 l 628 151 q 610 144 617 151 q 603 126 603 138 l 603 124 q 540 90 567 117 q 506 25 513 63 l 503 25 q 485 18 492 25 q 478 0 478 11 l 150 0 q 143 18 150 11 q 125 25 136 25 l 122 25 q 88 90 115 63 q 25 124 61 117 l 25 126 q 18 144 25 138 q 0 151 11 151 l 0 344 q -7 419 0 386 q -24 478 -14 453 q -47 521 -35 503 q -68 550 -58 539 q -76 564 -75 557 q -68 571 -76 571 q -39 569 -57 571 q 0 564 -21 568 l 0 982 q 18 989 11 982 q 25 1007 25 996 l 25 1010 q 88 1044 61 1017 q 122 1107 115 1071 l 125 1107 q 143 1114 136 1107 q 150 1132 150 1121 l 478 1132 q 485 1114 478 1121 q 503 1107 492 1107 l 506 1107 q 540 1044 513 1071 q 603 1010 567 1017 l 603 1007 q 610 989 603 996 q 628 982 617 982 l 628 564 q 667 569 650 568 q 696 571 685 571 m 440 957 l 389 1007 l 239 1007 l 188 957 l 188 176 l 239 126 l 389 126 l 440 176 l 440 957 z "},"P":{"ha":732,"x_min":-56,"x_max":649,"o":"m 624 1000 q 631 982 624 989 q 649 975 638 975 l 649 686 q 631 679 638 686 q 624 661 624 672 l 624 658 q 540 599 569 647 q 526 560 531 582 q 524 548 524 554 q 524 535 524 542 l 524 522 q 506 515 513 522 q 499 497 499 508 l 474 497 l 467 497 q 365 469 408 497 q 311 397 321 440 q 359 376 339 396 q 379 328 379 356 q 358 278 379 299 q 310 258 338 258 l 303 258 q 253 281 268 260 q 238 333 238 301 q 251 404 238 364 q 286 485 264 444 q 338 566 308 526 q 397 636 367 606 l 460 699 l 461 697 l 461 950 l 410 1000 l 235 1000 l 208 975 l 208 564 q 248 569 231 568 q 276 571 265 571 q 284 564 285 571 q 276 550 283 557 q 255 521 267 539 q 233 477 243 503 q 215 417 222 451 q 208 340 208 383 l 208 119 l 229 19 q 215 10 221 17 q 208 -6 208 4 l 21 -6 q 15 10 21 4 q 0 19 8 17 l 21 119 l 21 361 q -6 483 17 438 q -47 550 -28 528 q -55 564 -54 557 q -47 571 -56 571 q -18 569 -36 571 q 21 564 0 568 l 21 1000 l 0 1101 q 15 1110 8 1104 q 21 1126 21 1117 l 499 1126 q 506 1108 499 1115 q 524 1101 513 1101 l 526 1101 q 560 1037 533 1064 q 624 1003 588 1010 l 624 1000 l 624 1000 z "},"Q":{"ha":775,"x_min":-76,"x_max":706,"o":"m 629 144 q 611 138 618 144 q 604 119 604 131 l 604 117 q 540 83 567 110 q 506 19 513 56 l 503 19 q 485 13 492 19 q 478 -6 478 6 l 392 -6 q 435 -110 401 -67 q 517 -162 469 -153 q 543 -102 518 -126 q 604 -78 568 -78 q 666 -103 640 -78 q 692 -165 692 -129 l 692 -174 q 665 -235 689 -215 q 605 -256 642 -254 q 522 -243 568 -257 q 426 -205 475 -229 q 328 -147 376 -181 q 239 -78 279 -114 l 239 -6 l 151 -6 q 144 13 151 6 q 126 19 138 19 l 124 19 q 90 83 117 56 q 25 117 63 110 l 25 119 q 18 138 25 131 q 0 144 11 144 l 0 351 q -8 424 -1 392 q -25 480 -15 456 q -47 522 -35 504 q -68 550 -58 539 q -76 564 -75 557 q -68 571 -76 571 q -39 569 -57 571 q 0 564 -21 568 l 0 975 q 18 982 11 975 q 25 1000 25 989 l 25 1003 q 90 1037 63 1010 q 124 1101 117 1064 l 126 1101 q 144 1108 138 1101 q 151 1126 151 1115 l 478 1126 q 485 1108 478 1115 q 503 1101 492 1101 l 506 1101 q 540 1037 513 1064 q 604 1003 567 1010 l 604 1000 q 611 982 604 989 q 629 975 618 975 l 629 564 q 668 569 650 568 q 697 571 686 571 q 705 564 706 571 q 697 550 704 557 q 674 521 686 539 q 653 476 663 503 q 636 416 643 450 q 629 339 629 382 l 629 331 l 629 144 m 440 950 l 390 1000 l 239 1000 l 189 950 l 189 169 l 239 119 l 390 119 l 440 169 l 440 950 z "},"R":{"ha":771,"x_min":-56,"x_max":729,"o":"m 729 19 q 710 -6 710 14 l 521 -6 q 500 19 521 15 l 503 119 l 383 479 q 337 444 356 465 q 311 397 318 424 q 359 376 339 396 q 379 328 379 356 q 358 278 379 299 q 310 258 338 258 l 303 258 q 253 281 268 260 q 238 333 238 301 q 251 404 238 364 q 286 485 264 444 q 338 566 308 526 q 397 636 367 606 l 460 699 l 460 697 l 460 950 l 410 1000 l 233 1000 l 208 975 l 208 564 q 247 569 229 568 q 276 571 265 571 q 284 564 285 571 q 276 550 283 557 q 234 481 257 528 q 208 354 211 433 l 208 119 l 229 19 q 215 10 221 17 q 208 -6 208 4 l 21 -6 q 15 10 21 4 q 0 19 8 17 l 21 119 l 21 349 q 13 422 19 390 q -4 479 6 454 q -26 522 -14 504 q -47 550 -37 539 q -55 564 -54 557 q -47 571 -56 571 q -18 569 -36 571 q 21 564 0 568 l 21 1000 l 0 1101 q 15 1110 8 1104 q 21 1126 21 1117 l 499 1126 q 506 1108 499 1115 q 524 1101 513 1101 l 526 1101 q 560 1037 533 1064 q 624 1003 588 1010 l 624 1000 q 631 982 624 989 q 649 975 638 975 l 649 686 q 631 679 638 686 q 624 661 624 672 l 624 658 q 540 599 569 647 q 532 579 533 588 l 692 119 l 729 19 z "},"S":{"ha":711,"x_min":-19,"x_max":642,"o":"m 642 893 q 624 886 631 893 q 617 868 617 879 q 619 857 617 861 l 475 754 q 453 768 468 768 l 453 957 l 403 1007 l 251 1007 l 201 957 l 201 814 l 344 719 q 368 760 356 743 q 388 788 381 778 q 397 790 393 794 q 401 776 400 785 q 424 707 406 750 q 500 615 443 664 q 501 614 501 615 l 619 536 q 617 524 617 528 q 624 506 617 513 q 642 499 631 499 l 642 151 q 624 144 631 151 q 617 126 617 138 l 617 124 q 552 90 579 117 q 518 25 525 63 l 515 25 q 497 18 504 25 q 490 0 490 11 l 151 0 q 144 18 151 11 q 126 25 138 25 l 124 25 q 90 90 117 63 q 25 124 63 117 l 25 126 q 18 144 25 138 q 0 151 11 151 l 0 297 q 7 311 3 300 q 17 338 11 322 q 33 369 24 353 q 54 399 42 386 q 99 477 90 435 q 88 551 107 519 q 79 546 85 549 q 42 536 63 535 q 6 553 21 538 q -8 613 -19 579 q 6 636 -4 626 q 11 640 8 639 q 65 654 39 665 q 113 610 90 643 q 151 528 135 576 q 174 429 167 479 q 189 418 178 421 q 191 417 190 418 q 193 417 192 417 l 193 183 l 203 163 l 239 126 l 403 126 l 453 176 l 453 435 l 406 467 l 404 467 q 288 491 335 493 q 217 479 240 489 q 203 478 208 476 q 200 486 197 479 q 218 524 206 500 q 251 569 231 547 l 35 714 q 38 726 38 722 q 31 744 38 738 q 13 751 24 751 l 13 982 q 31 989 24 982 q 38 1007 38 996 l 38 1010 q 102 1044 75 1017 q 136 1107 129 1071 l 139 1107 q 157 1114 150 1107 q 164 1132 164 1121 l 490 1132 q 497 1114 490 1121 q 515 1107 504 1107 l 518 1107 q 552 1044 525 1071 q 617 1010 579 1017 l 617 1007 q 624 989 617 996 q 642 982 631 982 l 642 893 l 642 893 z "},"T":{"ha":772,"x_min":0,"x_max":703,"o":"m 693 1129 q 703 1126 696 1126 l 703 1000 q 684 994 694 1000 q 674 971 674 988 q 665 961 671 969 q 649 941 658 953 q 630 916 640 929 q 610 893 619 903 q 576 832 582 865 q 585 775 569 799 q 588 777 586 776 q 590 779 589 778 q 620 787 604 789 q 647 774 636 785 q 658 728 668 753 q 647 710 657 719 q 644 707 644 707 q 602 696 622 688 q 565 730 582 704 q 536 793 549 756 q 518 869 524 831 q 506 878 513 878 q 503 879 506 879 l 503 1000 l 471 1000 l 446 976 l 446 564 q 485 569 467 568 q 514 571 503 571 q 522 564 522 571 q 514 550 521 557 q 492 521 504 539 q 470 476 481 503 q 453 416 460 450 q 446 339 446 382 l 446 333 l 446 119 l 467 19 q 452 10 458 17 q 446 -6 446 4 l 257 -6 q 238 19 257 14 l 257 119 l 257 363 q 249 430 256 400 q 232 483 242 460 q 211 522 222 506 q 190 550 200 539 q 183 564 183 557 q 190 571 182 571 q 219 569 201 571 q 257 564 238 568 l 257 975 l 235 999 l 200 999 l 200 876 l 197 876 q 186 867 188 874 q 168 790 181 828 q 139 727 156 753 q 101 693 122 701 q 60 704 81 685 q 58 706 58 706 q 56 707 57 706 q 49 716 51 711 q 44 725 47 721 q 56 771 35 753 q 83 785 67 783 q 113 778 99 786 q 119 772 115 776 q 128 830 135 796 q 93 892 121 864 q 73 914 83 901 q 54 938 63 926 q 39 958 46 950 q 31 969 32 967 q 20 992 31 985 q 0 999 10 999 l 0 1124 q 11 1129 3 1124 l 693 1129 l 693 1129 z "},"U":{"ha":796,"x_min":-56,"x_max":726,"o":"m 718 571 q 726 564 726 571 q 718 550 725 557 q 695 521 707 539 q 674 476 683 503 q 657 416 664 450 q 650 339 650 382 l 650 333 l 650 151 q 632 144 639 151 q 625 126 625 138 l 625 124 q 560 90 588 117 q 526 25 533 63 l 524 25 q 506 18 513 25 q 499 0 499 11 l 172 0 q 165 18 172 11 q 147 25 158 25 l 144 25 q 110 90 138 63 q 46 124 83 117 l 46 126 q 39 144 46 138 q 21 151 32 151 l 21 350 q 13 422 19 390 q -4 479 6 454 q -26 522 -14 504 q -47 550 -37 539 q -55 564 -54 557 q -47 571 -56 571 q -18 569 -36 571 q 21 564 0 568 l 21 1000 l 0 1101 q 21 1126 21 1106 l 210 1126 q 229 1101 210 1106 l 210 1000 l 210 176 l 260 126 l 411 126 l 461 176 l 461 1000 l 440 1101 q 461 1126 461 1106 l 650 1126 q 669 1101 650 1106 l 650 1000 l 650 564 q 689 569 671 568 q 718 571 707 571 z "},"V":{"ha":692,"x_min":-83,"x_max":636,"o":"m 599 1000 l 501 561 q 533 560 519 561 q 557 557 547 558 q 563 549 565 554 q 554 536 561 543 q 507 485 533 519 q 464 389 481 451 l 451 335 q 447 315 449 321 l 403 119 l 424 18 q 409 10 415 17 q 403 -6 403 3 l 163 -6 q 157 10 163 3 q 143 18 151 17 l 163 119 l 118 321 q 117 322 118 322 l 101 393 q 58 485 83 451 q 13 536 32 519 q 3 549 6 543 q 8 557 1 554 q 33 560 19 558 q 64 561 47 561 l -33 1000 l -83 1101 q -64 1126 -64 1106 l 163 1126 q 169 1110 163 1117 q 183 1101 175 1104 l 156 1000 l 283 411 l 410 1000 l 394 1101 q 415 1126 415 1106 l 617 1126 q 636 1101 617 1106 l 599 1000 z "},"W":{"ha":1254,"x_min":0,"x_max":1199,"o":"m 1160 1007 l 1063 567 q 1119 563 1100 567 q 1126 555 1128 561 q 1115 542 1124 549 q 1088 517 1103 532 q 1060 477 1074 501 q 1033 421 1046 453 q 1014 346 1021 389 q 1006 311 1013 326 l 965 125 l 985 25 q 970 16 976 22 q 964 0 964 10 l 724 0 q 704 25 724 19 l 724 125 l 606 660 l 486 125 l 507 25 q 492 16 499 22 q 486 0 486 10 l 246 0 q 226 25 246 19 l 246 125 l 185 399 q 141 492 167 458 q 96 542 115 526 q 87 555 89 549 q 93 563 85 561 q 147 567 111 567 l 50 1007 l 0 1107 q 19 1132 19 1111 l 246 1132 q 252 1116 246 1122 q 267 1107 258 1110 l 239 1007 l 367 417 l 493 1007 l 479 1106 l 478 1107 q 492 1116 486 1110 q 499 1132 499 1122 l 725 1132 q 744 1107 725 1111 l 717 1007 l 844 417 l 972 1007 l 957 1107 q 976 1132 976 1111 l 1178 1132 q 1199 1107 1178 1111 l 1160 1007 z "},"X":{"ha":669,"x_min":0,"x_max":669,"o":"m 618 126 l 669 25 q 649 0 649 21 l 422 0 q 403 25 422 19 l 431 126 l 335 386 l 239 126 l 267 25 q 252 16 258 22 q 246 0 246 10 l 19 0 q 0 25 19 19 l 50 126 l 193 507 q 162 560 179 538 q 133 596 144 583 q 126 610 126 603 q 133 617 125 617 q 167 615 146 617 q 214 607 189 613 l 50 1007 l 0 1107 q 19 1132 19 1111 l 246 1132 q 252 1116 246 1122 q 267 1107 258 1110 l 239 1007 l 335 768 l 431 1007 l 403 1107 q 422 1132 422 1111 l 649 1132 q 669 1107 649 1111 l 618 1007 l 456 607 q 501 615 481 613 q 536 617 522 617 q 544 610 544 617 q 536 596 543 603 q 507 561 525 583 q 476 508 489 539 l 618 126 z "},"Y":{"ha":815,"x_min":0,"x_max":746,"o":"m 694 1006 l 504 575 q 526 576 515 576 q 543 576 536 576 q 551 569 551 576 q 543 556 550 563 q 522 527 533 544 q 500 485 510 510 q 483 427 490 460 q 475 353 476 394 l 475 126 l 496 25 q 481 16 488 22 q 475 0 475 10 l 288 0 q 281 16 288 10 q 267 25 275 22 l 288 126 l 288 363 q 262 488 285 442 q 219 556 239 533 q 212 569 213 563 q 219 576 211 576 q 231 576 225 576 q 244 575 238 576 l 63 1006 l 0 1107 q 19 1132 19 1111 l 233 1132 q 240 1116 233 1122 q 254 1107 246 1110 l 239 1006 l 372 682 l 506 1006 l 504 1107 q 524 1132 524 1111 l 725 1132 q 746 1107 725 1111 l 694 1006 z "},"Z":{"ha":726,"x_min":-12,"x_max":657,"o":"m 657 25 q 638 0 638 19 l 8 0 q -12 25 8 21 l 8 126 l 8 232 l 8 246 q 26 253 19 246 q 33 271 33 260 q 29 283 33 279 l 225 589 q 224 644 228 621 q 213 681 219 667 q 210 692 210 688 q 217 693 211 696 q 242 683 226 690 q 274 665 257 676 l 449 939 l 449 1006 l 214 1006 l 214 774 l 210 774 q 194 763 199 771 q 172 664 188 713 q 133 582 156 615 q 85 538 111 549 q 31 551 58 526 l 26 556 q 13 579 17 564 q 26 639 1 614 q 62 656 42 654 q 100 646 82 657 q 108 639 103 644 q 119 714 128 671 q 75 793 111 757 q 53 822 63 806 q 38 852 44 838 q 28 878 32 867 q 21 893 24 890 l 21 926 l 21 1006 l 0 1107 q 15 1116 8 1110 q 21 1132 21 1122 l 638 1132 q 657 1107 638 1111 l 638 1006 l 638 876 q 619 869 626 876 q 613 851 613 863 q 615 839 613 843 l 444 571 q 482 549 467 558 q 483 542 486 544 q 474 538 481 539 q 441 526 460 535 q 399 500 422 518 l 197 183 l 197 176 l 247 126 l 399 126 l 435 161 l 444 182 l 444 417 l 449 417 q 464 429 460 419 q 487 528 471 479 q 524 610 503 576 q 572 653 546 643 q 626 639 599 664 l 631 635 q 646 611 643 622 q 647 580 650 596 q 631 553 643 564 q 595 535 615 538 q 558 544 575 533 q 550 551 556 546 q 538 476 529 519 q 582 397 547 433 q 604 368 594 385 q 620 337 614 351 q 631 311 626 322 q 638 297 635 300 l 638 206 l 638 126 l 657 25 z "},"!":{"ha":290,"x_min":0,"x_max":221,"o":"m 201 1090 q 221 1067 201 1069 l 201 969 l 165 328 l 185 231 q 165 206 165 225 l 51 206 q 32 231 51 225 l 51 328 l 19 969 l 0 1067 q 19 1090 19 1069 l 201 1090 m 176 146 q 183 127 176 135 q 200 117 189 119 l 176 0 l 39 0 l 17 117 q 39 146 39 122 l 176 146 z "},"@":{"ha":1018,"x_min":0,"x_max":949,"o":"m 738 1090 l 949 878 l 949 410 l 738 206 l 349 206 q 331 224 349 224 l 328 224 q 303 271 322 251 q 256 297 283 290 l 256 299 q 238 317 256 317 l 238 468 q 256 486 256 468 l 256 488 q 303 514 283 494 q 328 561 322 533 l 329 561 l 329 579 l 564 579 l 564 767 l 526 804 l 414 804 l 396 785 l 379 769 l 379 732 l 376 732 q 365 724 371 732 q 348 650 360 686 q 320 590 336 614 q 285 557 304 565 q 244 568 265 549 q 242 571 242 568 q 235 579 238 575 q 231 588 233 583 q 230 611 228 599 q 242 632 232 624 q 268 644 253 643 q 296 638 283 646 q 299 635 297 636 q 301 633 300 635 q 310 688 317 657 q 278 747 304 719 q 250 772 258 767 q 238 781 242 778 l 238 785 q 256 804 256 785 l 256 806 q 260 807 258 807 q 264 808 261 807 q 306 834 289 815 q 328 879 324 853 q 331 878 329 878 q 343 884 338 878 q 349 897 349 890 l 592 897 q 597 884 592 890 q 610 878 603 878 q 611 879 611 878 q 638 831 618 851 q 685 806 657 811 l 685 804 q 703 785 685 785 l 703 339 l 796 433 l 796 843 l 650 989 l 299 989 l 153 843 l 153 249 l 299 101 l 761 101 l 949 289 l 949 101 l 949 100 l 853 4 l 849 0 l 213 0 l 0 213 l 0 878 l 213 1090 l 738 1090 m 526 299 l 564 336 l 564 486 l 414 486 l 376 449 l 376 336 l 414 299 l 526 299 z "},"#":{"ha":903,"x_min":0,"x_max":833,"o":"m 619 636 l 601 490 l 758 490 q 768 457 756 471 q 800 443 781 443 l 790 369 l 586 369 l 567 213 q 531 199 547 213 q 513 165 515 185 l 439 165 l 465 369 l 319 369 l 300 213 q 265 199 281 213 q 246 165 249 185 l 172 165 l 199 369 l 42 369 l 0 417 l 10 490 l 214 490 l 232 636 l 75 636 l 33 683 l 43 757 l 247 757 l 267 914 l 321 963 l 394 963 l 368 757 l 514 757 l 533 914 l 588 963 l 661 963 l 635 757 l 792 757 q 801 724 789 738 q 833 710 814 710 l 825 636 l 619 636 m 499 636 l 353 636 l 335 490 l 481 490 l 499 636 z "},"$":{"ha":557,"x_min":-14,"x_max":488,"o":"m 488 793 q 468 775 468 793 q 469 765 468 768 l 361 688 q 344 699 356 699 l 344 879 l 344 842 l 306 879 l 192 879 l 153 842 l 153 733 l 471 522 q 468 513 468 517 q 488 493 468 493 l 488 231 q 474 224 479 231 q 468 211 468 218 l 468 210 q 420 183 440 203 q 393 135 400 163 l 392 135 q 372 115 372 135 l 297 115 l 308 21 q 297 0 297 17 l 182 0 q 169 21 182 15 l 181 115 l 115 115 q 109 129 115 124 q 96 135 103 135 l 93 135 q 67 183 88 163 q 19 210 47 203 l 19 211 q 14 224 19 218 q 0 231 8 231 l 0 342 q 5 351 1 343 q 13 372 8 360 q 25 396 18 383 q 42 418 32 408 q 75 478 68 446 q 67 533 82 510 q 63 531 64 532 q 60 529 63 531 q 31 522 47 521 q 4 535 15 524 q -7 579 -14 553 q 4 597 -1 593 l 8 601 q 49 611 29 619 q 86 578 69 603 q 115 516 103 553 q 132 440 126 479 q 143 432 133 435 l 146 432 l 146 254 l 154 239 l 182 211 l 306 211 l 344 249 l 344 211 l 344 446 l 26 657 q 29 667 29 663 q 23 681 29 675 q 10 686 17 686 l 10 860 q 23 866 17 860 q 29 879 29 872 l 29 882 q 77 908 57 888 q 103 956 97 928 l 106 956 q 124 975 124 956 l 181 975 l 169 1071 q 182 1090 182 1074 l 297 1090 q 308 1071 297 1074 l 297 975 l 372 975 q 392 956 372 956 l 393 956 q 420 908 400 928 q 468 882 440 888 l 468 879 q 474 866 468 872 q 488 860 479 860 l 488 793 l 488 793 z "},"%":{"ha":936,"x_min":-6,"x_max":867,"o":"m 364 1013 q 379 997 364 997 l 379 721 q 364 706 364 721 l 364 704 q 324 683 340 700 q 304 644 308 667 l 301 644 q 286 629 286 644 l 86 629 q 71 644 86 644 l 69 644 q 49 683 65 667 q 10 704 33 700 l 10 706 q -6 721 10 721 l -6 997 q 10 1013 10 997 l 10 1015 q 49 1035 33 1019 q 69 1075 65 1051 l 71 1075 q 86 1090 86 1075 l 286 1090 q 301 1075 286 1075 l 304 1075 q 324 1035 308 1051 q 364 1015 340 1019 l 364 1013 m 264 982 l 233 1013 l 140 1013 l 110 982 l 110 736 l 140 706 l 233 706 l 264 736 l 264 982 m 851 385 q 867 369 851 369 l 867 93 q 851 78 851 93 l 851 76 q 812 55 828 71 q 792 15 796 39 l 789 15 q 774 0 774 15 l 574 0 q 558 15 574 15 l 557 15 q 537 55 553 39 q 497 76 521 71 l 497 78 q 482 93 497 93 l 482 369 q 497 385 497 369 l 497 386 q 537 408 521 392 q 557 446 553 424 l 558 446 q 574 461 574 446 l 774 461 q 789 446 774 446 l 792 446 q 812 408 796 424 q 851 386 828 392 l 851 385 m 751 354 l 721 385 l 628 385 l 597 354 l 597 108 l 628 78 l 721 78 l 751 108 l 751 354 m 313 121 l 288 24 q 258 0 268 21 l 108 0 q 99 24 115 21 l 163 121 l 542 969 l 565 1067 q 596 1090 586 1069 l 746 1090 q 754 1067 736 1069 l 692 969 l 313 121 z "},"^":{"ha":443,"x_min":0,"x_max":374,"o":"m 222 842 l 186 922 l 150 842 l 0 842 l 57 969 l 81 1067 q 111 1090 101 1069 l 263 1090 q 274 1074 265 1081 q 292 1067 283 1068 l 317 969 l 374 842 l 222 842 z "},"&":{"ha":758,"x_min":0,"x_max":717,"o":"m 606 519 l 606 192 l 606 128 l 625 31 q 606 7 606 25 l 146 7 q 139 24 146 17 q 121 31 132 31 l 118 31 q 85 92 111 67 q 24 125 60 118 l 24 128 q 17 144 24 138 q 0 151 11 151 l 0 481 q 26 492 15 481 q 38 519 38 504 l 106 519 l 0 625 l 0 829 q 17 836 11 829 q 24 854 24 843 l 24 857 q 85 890 60 864 q 118 951 111 915 l 121 951 q 139 958 132 951 q 146 975 146 964 l 460 975 q 467 958 460 964 q 485 951 474 951 l 488 951 q 520 890 494 915 q 582 857 546 864 l 582 854 q 588 836 582 843 q 606 829 594 829 l 606 746 l 424 746 l 424 806 l 375 854 l 231 854 l 182 806 l 182 640 l 717 640 l 682 519 l 606 519 m 424 519 l 254 519 q 247 506 254 513 q 227 483 238 494 q 207 456 217 472 q 190 417 197 440 q 182 357 183 393 l 182 176 l 231 128 l 400 128 l 424 151 l 424 519 z "},"*":{"ha":436,"x_min":0,"x_max":367,"o":"m 140 717 l 140 828 l 71 789 l 28 800 l 0 847 l 96 903 l 21 947 l 28 957 q 29 967 29 960 q 22 975 28 969 l 13 981 l 43 1035 l 140 979 l 140 1058 l 171 1090 l 226 1090 l 226 979 l 301 1022 l 308 1011 q 315 1006 310 1008 l 318 1006 q 325 1007 324 1006 l 335 1013 l 367 960 l 269 903 l 339 864 l 351 821 l 324 772 l 226 828 l 226 742 l 214 742 q 206 738 210 742 q 201 729 201 735 l 201 717 l 140 717 z "},"(":{"ha":375,"x_min":0,"x_max":292,"o":"m 238 961 q 190 750 206 853 q 174 545 174 647 q 190 340 174 443 q 238 129 206 238 q 263 86 253 103 q 292 46 274 69 q 285 17 275 33 q 242 -3 261 6 q 206 -21 224 -12 q 169 -38 188 -29 q 126 -58 150 -47 q 99 -40 117 -37 q 85 15 89 -7 q 74 72 81 38 q 18 312 36 194 q 0 545 0 429 q 18 778 0 661 q 74 1019 36 896 q 85 1075 81 1053 q 99 1131 89 1097 q 126 1149 117 1128 q 169 1128 150 1138 q 206 1111 188 1119 q 242 1094 224 1103 q 285 1075 261 1086 q 292 1044 275 1056 q 263 1004 274 1021 q 238 961 253 988 z "},")":{"ha":375,"x_min":14,"x_max":304,"o":"m 68 961 q 42 1004 53 988 q 14 1044 31 1021 q 21 1075 29 1057 q 63 1094 44 1086 q 99 1111 82 1103 q 135 1128 117 1119 q 178 1149 154 1138 q 207 1131 188 1128 q 220 1075 215 1097 q 231 1019 225 1053 q 286 778 268 896 q 304 545 304 661 q 286 312 304 429 q 231 72 268 194 q 220 15 225 38 q 207 -40 215 -7 q 178 -58 188 -37 q 135 -38 154 -47 q 99 -21 117 -29 q 63 -3 82 -12 q 21 17 44 6 q 23 32 25 24 q 14 46 21 40 q 42 86 31 69 q 68 129 53 103 q 116 340 100 238 q 132 545 132 443 q 116 750 132 647 q 68 961 100 853 z "},".":{"ha":261,"x_min":0,"x_max":192,"o":"m 192 122 l 167 0 l 24 0 l 0 122 q 17 133 11 125 q 24 151 24 140 l 167 151 q 174 133 167 140 q 192 122 181 125 z "},",":{"ha":193,"x_min":0,"x_max":124,"o":"m 124 122 l 61 -37 l 0 0 l 10 151 l 100 151 q 106 133 100 140 q 124 122 113 125 z "},"/":{"ha":1157,"x_min":0,"x_max":685,"o":"m 222 126 l 197 25 q 167 0 175 21 l 10 0 q 0 25 18 21 l 65 126 l 461 1011 l 486 1113 q 505 1122 496 1115 q 518 1138 514 1128 l 675 1138 q 685 1113 665 1117 l 618 1011 l 222 126 z "},"":{"ha":1157,"x_min":0,"x_max":0,"o":""},"":{"ha":1157,"x_min":0,"x_max":0,"o":""},"'":{"ha":193,"x_min":0,"x_max":124,"o":"m 124 1108 l 61 947 l 0 986 l 10 1138 l 100 1138 q 124 1108 100 1111 z "},"\"":{"ha":1157,"x_min":0,"x_max":263,"o":"m 124 1108 l 61 947 l 0 986 l 10 1138 l 100 1138 q 124 1108 100 1111 m 263 1108 l 200 947 l 139 986 l 149 1138 l 239 1138 q 263 1108 239 1111 z "},"[":{"ha":335,"x_min":0,"x_max":265,"o":"m 157 151 l 182 126 l 265 126 l 265 0 l 21 0 q 15 16 21 10 q 0 25 8 22 l 21 126 l 21 1011 l 0 1113 q 15 1122 8 1115 q 21 1138 21 1128 l 265 1138 l 265 1011 l 182 1011 l 157 986 l 157 151 z "},"\\":{"ha":1157,"x_min":0,"x_max":685,"o":"m 65 1011 l 0 1113 q 10 1138 18 1117 l 167 1138 q 197 1113 175 1117 l 222 1011 l 618 126 l 685 25 q 675 0 665 21 l 518 0 q 505 16 514 10 q 486 25 496 22 l 461 126 l 65 1011 z "},"]":{"ha":335,"x_min":0,"x_max":265,"o":"m 108 986 l 83 1011 l 0 1011 l 0 1138 l 244 1138 q 251 1122 244 1128 q 265 1113 257 1115 l 244 1011 l 244 126 l 265 25 q 251 16 257 22 q 244 0 244 10 l 0 0 l 0 126 l 83 126 l 108 151 l 108 986 z "},"{":{"ha":1157,"x_min":0,"x_max":351,"o":"m 213 669 q 194 663 201 669 q 188 644 188 656 l 188 642 q 104 582 131 631 q 188 521 131 532 l 188 518 q 194 500 188 507 q 213 493 201 493 l 213 481 l 214 481 l 214 176 l 264 126 l 351 126 l 351 0 l 226 0 q 219 18 226 11 q 201 25 213 25 l 199 25 q 165 90 192 63 q 100 124 138 117 l 100 126 q 93 144 100 138 q 75 151 86 151 l 75 253 l 74 253 l 74 468 l 24 518 l 0 518 l 0 644 l 24 644 l 74 694 l 74 885 l 75 885 l 75 986 q 93 993 86 986 q 100 1011 100 1000 l 100 1014 q 165 1048 138 1021 q 199 1113 192 1075 l 201 1113 q 219 1119 213 1113 q 226 1138 226 1126 l 351 1138 l 351 1011 l 264 1011 l 214 961 l 214 682 l 213 682 l 213 669 l 213 669 z "},"}":{"ha":1157,"x_min":0,"x_max":351,"o":"m 138 669 l 138 682 l 138 961 l 86 1011 l 0 1011 l 0 1138 l 124 1138 q 131 1119 124 1126 q 150 1113 139 1113 l 153 1113 q 187 1048 160 1075 q 251 1014 214 1021 q 250 1011 250 1013 q 258 993 250 1000 q 276 986 265 986 l 276 885 l 276 694 l 328 644 l 351 644 l 351 518 l 328 518 l 276 468 l 276 253 l 276 151 q 258 144 265 151 q 250 126 250 138 q 251 124 250 125 q 187 90 214 117 q 153 25 160 63 l 150 25 q 131 18 139 25 q 124 0 124 11 l 0 0 l 0 126 l 86 126 l 138 176 l 138 481 l 138 493 q 156 500 149 493 q 164 518 164 507 q 163 521 164 519 q 247 582 219 532 q 163 642 218 631 q 164 644 164 643 q 156 663 164 656 q 138 669 149 669 z "},"=":{"ha":572,"x_min":0,"x_max":503,"o":"m 503 644 l 50 644 q 35 680 50 665 q 0 694 21 694 l 0 771 l 454 771 l 503 721 l 503 644 m 503 381 l 50 381 q 35 416 50 401 q 0 431 21 431 l 0 507 l 454 507 l 503 458 l 503 381 z "},"+":{"ha":901,"x_min":0,"x_max":832,"o":"m 832 522 l 479 522 l 479 219 l 429 169 l 353 169 l 353 522 l 50 522 l 0 572 l 0 649 l 353 649 l 353 951 q 388 966 374 951 q 403 1001 403 981 l 479 1001 l 479 649 l 782 649 q 797 613 782 628 q 832 599 811 599 l 832 522 z "},"-":{"ha":572,"x_min":0,"x_max":503,"o":"m 503 522 l 50 522 q 35 558 50 543 q 0 572 21 572 l 0 649 l 454 649 l 503 599 l 503 522 z "},"_":{"ha":951,"x_min":0,"x_max":882,"o":"m 882 0 l 50 0 q 35 35 50 21 q 0 50 21 50 l 0 126 l 833 126 l 882 76 l 882 0 z "},":":{"ha":1157,"x_min":0,"x_max":192,"o":"m 192 122 l 167 0 l 24 0 l 0 122 q 17 133 11 125 q 24 151 24 140 l 167 151 q 174 133 167 140 q 192 122 181 125 m 192 551 l 167 429 l 24 429 l 0 551 q 24 582 24 556 l 167 582 q 174 563 167 571 q 192 551 181 554 z "},";":{"ha":261,"x_min":0,"x_max":192,"o":"m 192 551 l 167 429 l 24 429 l 0 551 q 24 582 24 556 l 167 582 q 174 563 167 571 q 192 551 181 554 m 160 122 l 97 -37 l 36 0 l 46 151 l 136 151 q 142 133 136 140 q 160 122 149 125 z "},"A":{"ha":776,"x_min":0,"x_max":707,"o":"m 707 25 q 688 0 688 19 l 486 0 q 465 25 486 21 l 481 126 l 479 138 q 422 235 463 199 q 328 283 381 272 q 260 281 283 289 l 226 126 l 254 25 q 240 16 246 22 q 233 0 233 10 l 19 0 q 0 25 19 19 l 38 126 l 93 372 q 98 443 100 413 q 90 496 96 474 q 73 533 83 518 q 53 558 63 547 q 45 572 46 565 q 53 579 44 579 q 89 578 67 579 q 136 571 111 578 l 233 1007 l 214 1107 q 233 1132 233 1111 l 474 1132 q 480 1116 474 1122 q 494 1107 486 1110 l 474 1007 l 571 571 q 619 578 597 578 q 656 579 642 579 q 663 572 664 579 q 656 558 663 565 q 633 531 644 547 q 616 489 622 514 q 610 430 610 464 q 621 349 610 396 l 669 126 l 707 25 m 290 421 q 429 364 356 404 l 354 715 l 290 421 z "},"B":{"ha":772,"x_min":-56,"x_max":675,"o":"m 650 542 q 657 523 650 531 q 675 515 664 515 l 675 151 q 657 144 664 151 q 650 126 650 138 l 650 124 q 585 90 613 117 q 551 25 558 63 l 549 25 q 531 18 538 25 q 524 0 524 11 l 21 0 q 15 16 21 10 q 0 25 8 22 l 21 126 l 21 372 q -6 491 17 447 q -47 556 -28 535 q -55 570 -54 564 q -47 576 -56 576 q -18 575 -36 576 q 21 571 0 574 l 21 1007 l 0 1107 q 15 1116 8 1110 q 21 1132 21 1122 l 499 1132 q 506 1114 499 1121 q 524 1107 513 1107 l 526 1107 q 560 1044 533 1071 q 625 1008 588 1017 q 624 1007 624 1008 q 631 989 624 996 q 650 982 639 982 l 650 692 q 631 685 639 692 q 624 667 624 678 q 625 664 624 665 q 540 604 569 653 q 585 559 557 576 q 650 542 614 542 m 486 503 l 474 503 l 467 503 q 365 474 408 503 q 311 403 321 446 q 355 381 338 400 q 372 333 372 361 q 354 287 372 306 q 310 265 336 268 l 310 264 l 307 264 l 303 264 q 290 265 296 264 q 276 269 283 267 q 251 289 260 275 q 235 333 235 306 q 245 392 235 356 q 276 471 256 428 q 328 558 297 514 q 397 642 358 603 l 460 704 l 461 703 l 461 956 l 410 1007 l 235 1007 l 210 982 l 210 569 q 249 575 231 574 q 278 576 267 576 q 285 570 286 576 q 278 556 285 564 q 255 526 267 544 q 233 483 243 508 q 217 423 224 457 q 210 346 210 389 l 210 336 l 210 151 l 235 126 l 436 126 l 486 176 l 486 503 z "},"C":{"ha":697,"x_min":-76,"x_max":649,"o":"m 542 411 q 531 337 522 379 q 575 258 539 294 q 597 229 588 246 q 612 197 606 213 q 622 171 618 182 q 629 157 626 160 l 629 151 q 611 144 618 151 q 604 126 604 138 l 604 124 q 579 115 592 121 l 571 111 q 517 56 533 92 q 515 52 515 53 q 513 49 514 51 q 512 45 513 46 q 511 42 511 44 q 506 25 508 36 l 503 25 q 485 18 493 25 q 478 0 478 11 l 151 0 q 144 18 151 11 q 126 25 138 25 l 124 25 q 90 90 117 63 q 25 124 63 117 l 25 126 q 18 144 25 138 q 0 151 11 151 l 0 351 q -24 483 -1 435 q -68 556 -47 532 q -76 570 -75 564 q -68 576 -76 576 q -39 575 -57 576 q 0 571 -21 574 l 0 982 q 18 989 11 982 q 25 1007 25 996 l 25 1008 q 90 1044 63 1017 q 124 1107 117 1071 l 126 1107 q 144 1114 138 1107 q 151 1132 151 1121 l 478 1132 q 485 1114 478 1121 q 503 1107 493 1107 l 506 1107 q 540 1044 513 1071 q 604 1008 567 1017 l 604 1007 q 611 989 604 996 q 629 982 618 982 l 629 893 q 611 886 618 893 q 604 868 604 879 q 607 857 604 863 l 463 754 q 453 764 460 760 q 440 768 447 768 l 440 956 l 390 1007 l 239 1007 l 189 956 l 189 571 q 228 575 210 574 q 257 576 246 576 q 265 570 265 576 q 257 556 264 564 q 215 488 238 533 q 189 364 192 442 l 189 176 l 239 126 l 390 126 l 436 172 l 436 276 q 438 277 438 276 q 440 278 439 278 q 456 289 451 281 q 478 388 463 339 q 517 469 494 436 q 565 514 539 503 q 619 500 592 525 l 624 496 q 638 472 632 486 q 624 413 649 439 q 588 396 608 397 q 550 406 567 394 q 542 411 544 408 z "}}}
